<?xml version="1.0" standalone="no"?>
<!DOCTYPE svg PUBLIC "-//W3C//DTD SVG 20010904//EN"
 "http://www.w3.org/TR/2001/REC-SVG-20010904/DTD/svg10.dtd">
<svg version="1.0" xmlns="http://www.w3.org/2000/svg"
 width="16.000000pt" height="16.000000pt" viewBox="0 0 16.000000 16.000000"
 preserveAspectRatio="xMidYMid meet">

<g transform="translate(0.000000,16.000000) scale(0.100000,-0.100000)"
fill="#000000" stroke="none">
<path d="M4 147 c-3 -8 -4 -43 -2 -78 l3 -64 75 0 75 0 0 75 0 75 -73 3 c-55
2 -74 -1 -78 -11z m141 -67 c0 -54 -3 -65 -18 -68 -24 -5 -34 28 -13 44 16 12
16 13 -1 23 -17 11 -17 11 0 25 12 9 14 16 8 21 -13 8 -31 -2 -31 -17 0 -6 -7
-20 -17 -30 -9 -11 -11 -18 -5 -18 7 0 12 -12 12 -26 0 -23 -3 -25 -32 -22
-32 3 -33 4 -36 57 -5 80 -2 82 70 79 l63 -3 0 -65z"/>
</g>
</svg>
