<?xml version="1.0" standalone="no"?>
<!DOCTYPE svg PUBLIC "-//W3C//DTD SVG 20010904//EN"
 "http://www.w3.org/TR/2001/REC-SVG-20010904/DTD/svg10.dtd">
<svg version="1.0" xmlns="http://www.w3.org/2000/svg"
 width="16.000000pt" height="16.000000pt" viewBox="0 0 16.000000 16.000000"
 preserveAspectRatio="xMidYMid meet">

<g transform="translate(0.000000,16.000000) scale(0.100000,-0.100000)"
fill="#000000" stroke="none">
<path d="M0 80 l0 -80 80 0 80 0 0 80 0 80 -80 0 -80 0 0 -80z m120 40 c25
-25 26 -62 1 -84 -15 -13 -20 -14 -24 -4 -2 7 2 20 10 29 20 23 6 49 -27 49
-29 0 -47 -24 -32 -44 5 -6 9 -19 9 -29 0 -16 -2 -16 -19 0 -25 23 -23 68 4
87 30 21 54 20 78 -4z"/>
</g>
</svg>
