<?xml version="1.0" standalone="no"?>
<!DOCTYPE svg PUBLIC "-//W3C//DTD SVG 20010904//EN"
 "http://www.w3.org/TR/2001/REC-SVG-20010904/DTD/svg10.dtd">
<svg version="1.0" xmlns="http://www.w3.org/2000/svg"
 width="16.000000pt" height="16.000000pt" viewBox="0 0 16.000000 16.000000"
 preserveAspectRatio="xMidYMid meet">

<g transform="translate(0.000000,16.000000) scale(0.100000,-0.100000)"
fill="#000000" stroke="none">
<path d="M12 148 c-16 -16 -16 -120 0 -136 16 -16 120 -16 136 0 16 16 16 120
0 136 -16 16 -120 16 -136 0z m105 -36 c16 -10 -10 -71 -32 -73 -8 -1 -21 -2
-27 -3 -7 -1 -13 4 -13 9 -1 6 -5 20 -9 33 -10 30 -3 37 22 23 16 -8 21 -7 26
4 6 17 15 18 33 7z"/>
</g>
</svg>
